# xmcd CD database file
#
# Track frame offsets:
#	150
#	18340
#	29248
#	44886
#	56771
#	72489
#	88320
#	101923
#	114348
#	128705
#	141792
#	157916
#
# Disc length: 2306 seconds
#
# Revision: 0
# Processed by: cddbd v1.5.1PL0 Copyright (c) Steve Scherf et al.
# Submitted via: CDex 1.51
#
DISCID=b309000c
DTITLE=Ricky Chouinard and Albert Babin - Chantent Waylon Jennings and Willie Nelson
DYEAR=1900
DGENRE=Country
TTITLE0=I've always been crazy
TTITLE1=Only Daddy
TTITLE2=Drinkin' and dreamin'
TTITLE3=Hey Willie
TTITLE4=Lunchenbach Texas
TTITLE5=My heros have always been cowboys
TTITLE6=Wrong
TTITLE7=Just to satisfy you
TTITLE8=Blues eyes crying in the rain
TTITLE9=A good hearted women
TTITLE10=If I can find a clean shirt
TTITLE11=Mama's don't let your babies
EXTD=
EXTT0=
EXTT1=
EXTT2=
EXTT3=
EXTT4=
EXTT5=
EXTT6=
EXTT7=
EXTT8=
EXTT9=
EXTT10=
EXTT11=
PLAYORDER=
